<svg version="1.1" xmlns="http://www.w3.org/2000/svg" xmlns:xlink="http://www.w3.org/1999/xlink" width="662.25" height="416.31265" viewBox="0,0,662.25,416.31265"><defs><linearGradient x1="77.93773" y1="74" x2="77.93773" y2="362.00011" gradientUnits="userSpaceOnUse" id="color-1"><stop offset="0" stop-color="#292929"/><stop offset="1" stop-color="#212121"/></linearGradient><linearGradient x1="68.5" y1="74" x2="68.5" y2="362.00011" gradientUnits="userSpaceOnUse" id="color-2"><stop offset="0" stop-color="#474747"/><stop offset="1" stop-color="#3b3b3b"/></linearGradient></defs><g transform="translate(15,39.85001)"><g data-paper-data="{&quot;isPaintingLayer&quot;:true}" fill-rule="nonzero" stroke-linejoin="miter" stroke-miterlimit="10" stroke-dasharray="" stroke-dashoffset="0" style="mix-blend-mode: normal"><path d="M-2,78.24794h644" fill="#292929" stroke="#282828" stroke-width="8" stroke-linecap="round"/><path d="M-5.56227,362.00009v-288h179.34224c0,0 -46.68975,12.45696 -46.68975,34.9c0,43.24574 0,253.10001 0,253.10001z" fill="url(#color-1)" stroke="#404040" stroke-width="0" stroke-linecap="butt"/><path d="M-12.75,76.89998v-90h660v90z" fill-opacity="0.50196" fill="#828282" stroke="#404040" stroke-width="0" stroke-linecap="butt"/><path d="M138.25,-16.10001l-107.5,107.5" fill="none" stroke-opacity="0.50196" stroke="#ffffff" stroke-width="47.5" stroke-linecap="round"/><path d="M108.25,-31.10002l-107.5,107.5" fill="none" stroke-opacity="0.50196" stroke="#ffffff" stroke-width="6" stroke-linecap="round"/><path d="M-15,362.00009v-288h167c0,0 -34.34752,12.45696 -34.34752,34.9c0,43.24574 0,253.10001 0,253.10001z" fill="url(#color-2)" stroke="#404040" stroke-width="0" stroke-linecap="butt"/><path d="M-2,74.99999h644" fill="#404040" stroke="#474747" stroke-width="4" stroke-linecap="round"/><g stroke="#000000" stroke-width="0" stroke-linecap="butt"><g fill="#5a5a5a"><path d="M6.298,132.3549c1.79141,-30.90538 -5.87044,-36.21407 49.61388,-36.21407c49.86765,0 48.50138,3.89577 49.61388,36.21407c1.15828,33.64829 -1.61845,36.21408 -49.61388,36.21408c-42.37876,0 -51.4861,-3.91448 -49.61388,-36.21408z"/><path d="M55.87303,168.569c-47.99543,0 -50.77215,-2.56579 -49.61387,-36.21408c1.11249,-32.3183 -0.25378,-36.21407 49.61387,-36.21407c55.48431,0 47.82247,5.30869 49.61388,36.21407c1.87222,32.2996 -7.23511,36.21408 -49.61388,36.21408z" data-paper-data="{&quot;index&quot;:null}"/></g><g fill-opacity="0.50196" fill="#212121"><path d="M6.298,127.9758c1.79141,-30.90538 -5.87044,-36.21407 49.61388,-36.21407c49.86765,0 48.50138,3.89577 49.61388,36.21407c1.15828,33.64829 -1.61845,36.21408 -49.61388,36.21408c-42.37876,0 -51.4861,-3.91448 -49.61388,-36.21408z"/><path d="M55.87303,164.18988c-47.99543,0 -50.77215,-2.56579 -49.61387,-36.21408c1.11249,-32.31829 -0.25378,-36.21407 49.61387,-36.21407c55.48431,0 47.82247,5.30869 49.61388,36.21407c1.87222,32.2996 -7.23511,36.21408 -49.61388,36.21408z" data-paper-data="{&quot;index&quot;:null}"/></g></g><g stroke="#000000" stroke-width="0" stroke-linecap="butt"><g fill="#5a5a5a"><path d="M6.298,294.63463c1.7914,-30.90538 -5.87044,-36.21407 49.61388,-36.21407c49.86765,0 48.50138,3.89578 49.61388,36.21407c1.15828,33.64829 -1.61845,36.21407 -49.61388,36.21407c-42.37876,0 -51.4861,-3.91447 -49.61388,-36.21407z"/><path d="M55.87303,330.84872c-47.99542,0 -50.77214,-2.56579 -49.61387,-36.21407c1.1125,-32.31829 -0.25378,-36.21407 49.61387,-36.21407c55.48432,0 47.82247,5.30869 49.61387,36.21407c1.87223,32.2996 -7.23511,36.21407 -49.61387,36.21407z" data-paper-data="{&quot;index&quot;:null}"/></g><g fill-opacity="0.50196" fill="#212121"><path d="M6.298,290.25551c1.7914,-30.90538 -5.87044,-36.21407 49.61388,-36.21407c49.86765,0 48.50138,3.89577 49.61388,36.21407c1.15828,33.64829 -1.61845,36.21407 -49.61388,36.21407c-42.37876,0 -51.4861,-3.91447 -49.61388,-36.21407z"/><path d="M55.87303,326.4696c-47.99542,0 -50.77214,-2.56578 -49.61387,-36.21407c1.1125,-32.31829 -0.25378,-36.21407 49.61387,-36.21407c55.48432,0 47.82247,5.30869 49.61387,36.21407c1.87223,32.2996 -7.23511,36.21407 -49.61387,36.21407z" data-paper-data="{&quot;index&quot;:null}"/></g></g><g stroke="#000000" stroke-width="0" stroke-linecap="butt"><g fill="#5a5a5a"><path d="M6.298,213.49477c1.7914,-30.90538 -5.87044,-36.21407 49.61388,-36.21407c49.86765,0 48.50138,3.89577 49.61388,36.21407c1.15828,33.64829 -1.61845,36.21407 -49.61388,36.21407c-42.37876,0 -51.4861,-3.91448 -49.61388,-36.21407z"/><path d="M55.87303,249.70885c-47.99542,0 -50.77214,-2.56579 -49.61387,-36.21407c1.1125,-32.3183 -0.25378,-36.21407 49.61387,-36.21407c55.48432,0 47.82247,5.30869 49.61387,36.21407c1.87223,32.2996 -7.23511,36.21407 -49.61387,36.21407z" data-paper-data="{&quot;index&quot;:null}"/></g><g fill-opacity="0.50196" fill="#212121"><path d="M6.298,209.11565c1.7914,-30.90538 -5.87044,-36.21407 49.61388,-36.21407c49.86765,0 48.50138,3.89578 49.61388,36.21407c1.15828,33.64829 -1.61845,36.21407 -49.61388,36.21407c-42.37876,0 -51.4861,-3.91447 -49.61388,-36.21407z"/><path d="M55.87303,245.32975c-47.99542,0 -50.77214,-2.56578 -49.61387,-36.21407c1.1125,-32.3183 -0.25378,-36.21407 49.61387,-36.21407c55.48432,0 47.82247,5.30869 49.61387,36.21407c1.87223,32.2996 -7.23511,36.21407 -49.61387,36.21407z" data-paper-data="{&quot;index&quot;:null}"/></g></g><path d="M58.93423,342.05546h34.85774" fill="none" stroke="#282828" stroke-width="6" stroke-linecap="round"/><path d="M93.79197,344.47743h-34.85774" fill="none" stroke="#d94e4e" stroke-width="6" stroke-linecap="round"/><path d="M-10.0728,355.7645c0,-11.43128 9.26688,-20.69815 20.69816,-20.69815c11.43127,0 20.69815,9.26687 20.69815,20.69815c0,11.43128 -9.26688,20.69815 -20.69815,20.69815c-11.43127,0 -20.69815,-9.26688 -20.69815,-20.69815z" fill="#2a2a2a" stroke="#282828" stroke-width="0" stroke-linecap="butt"/><path d="M35.1843,349.65158c0,-3.43531 2.78487,-6.22017 6.22017,-6.22017c3.4353,0 6.22017,2.78486 6.22017,6.22017c0,3.43531 -2.78486,6.22017 -6.22017,6.22017c-3.4353,0 -6.22017,-2.78486 -6.22017,-6.22017z" fill="#2a2a2a" stroke="none" stroke-width="0" stroke-linecap="butt"/><path d="M30.46555,339.03439c0,-1.71765 1.39243,-3.11008 3.11008,-3.11008c1.71766,0 3.11009,1.39243 3.11009,3.11008c0,1.71765 -1.39243,3.11009 -3.11009,3.11009c-1.71766,0 -3.11008,-1.39243 -3.11008,-3.11009z" fill="#2a2a2a" stroke="none" stroke-width="0" stroke-linecap="butt"/></g></g></svg>