<svg version="1.1" xmlns="http://www.w3.org/2000/svg" xmlns:xlink="http://www.w3.org/1999/xlink" width="199.83678" height="199.83678" viewBox="0,0,199.83678,199.83678"><g transform="translate(-220.08161,-80.08161)"><g data-paper-data="{&quot;isPaintingLayer&quot;:true}" fill-rule="nonzero" stroke-linecap="butt" stroke-linejoin="miter" stroke-miterlimit="10" stroke-dasharray="" stroke-dashoffset="0" style="mix-blend-mode: normal"><path d="M220.08161,279.91839v-199.83678h199.83678v199.83678z" fill="#808080" stroke="none" stroke-width="0"/><path d="M258.5,171c0,-33.41323 27.08677,-60.5 60.5,-60.5c33.41323,0 60.5,27.08677 60.5,60.5c0,33.41323 -27.08677,60.5 -60.5,60.5c-33.41323,0 -60.5,-27.08677 -60.5,-60.5z" fill="#2b2b2b" stroke="#000000" stroke-width="0"/><path d="M320,239.03017c28.28228,0 51.99413,-2.89773 58.33497,40.33937c-39.02564,0.09751 -78.03567,-1.00014 -117.04192,0.51536c5.73124,-44.59504 29.83811,-40.85473 58.70696,-40.85473z" fill="#2b2b2b" stroke="none" stroke-width="0"/><path d="M378.33497,279.8849c-39.00625,-1.51551 -78.01628,-0.41785 -117.04192,-0.51536c6.34084,-43.2371 30.05269,-40.33937 58.33496,-40.33937c28.86885,0 52.97572,-3.74031 58.70696,40.85473z" data-paper-data="{&quot;index&quot;:null}" fill="#2b2b2b" stroke="none" stroke-width="0"/><text transform="translate(301.72653,200.41953) scale(1.76984,1.76984)" font-size="40" xml:space="preserve" fill="#ababab" fill-rule="nonzero" stroke="none" stroke-width="1" stroke-linecap="butt" stroke-linejoin="miter" stroke-miterlimit="10" stroke-dasharray="" stroke-dashoffset="0" font-family="&quot;toxigenesis bd&quot;, Sans Serif" font-weight="normal" text-anchor="start" style="mix-blend-mode: normal"><tspan x="0" dy="0">?</tspan></text></g></g></svg>