<svg version="1.1" xmlns="http://www.w3.org/2000/svg" xmlns:xlink="http://www.w3.org/1999/xlink" width="243" height="243" viewBox="0,0,243,243"><g transform="translate(-198.5,-58.5)"><g data-paper-data="{&quot;isPaintingLayer&quot;:true}" fill-rule="nonzero" stroke-linecap="butt" stroke-linejoin="miter" stroke-miterlimit="10" stroke-dasharray="" stroke-dashoffset="0" style="mix-blend-mode: normal"><path d="M376.58445,199.07164c21.67529,21.67529 30.84907,47.64412 20.49019,58.003c-10.35888,10.35888 -36.32771,1.1851 -58.003,-20.49019c-21.67529,-21.67529 -30.84907,-47.64412 -20.49019,-58.003c10.35888,-10.35888 36.32771,-1.1851 58.003,20.49019z" data-paper-data="{&quot;index&quot;:null}" fill="#efa67e" stroke="#ffffff" stroke-width="25"/><path d="M300.92836,123.41555c21.67529,21.67529 30.84907,47.64412 20.49019,58.003c-10.35888,10.35888 -36.32771,1.1851 -58.003,-20.49019c-21.67529,-21.67529 -30.84907,-47.64412 -20.49019,-58.003c10.35888,-10.35888 36.32771,-1.1851 58.003,20.49019z" data-paper-data="{&quot;index&quot;:null}" fill="#efa67e" stroke="#ffffff" stroke-width="25"/><path d="M263.41555,199.07164c21.67529,-21.67529 47.64412,-30.84907 58.003,-20.49019c10.35888,10.35888 1.1851,36.32771 -20.49019,58.003c-21.67529,21.67529 -47.64412,30.84907 -58.003,20.49019c-10.35888,-10.35888 -1.1851,-36.32771 20.49019,-58.003z" data-paper-data="{&quot;index&quot;:null}" fill="#efa67e" stroke="#ffffff" stroke-width="25"/><path d="M339.07164,123.41555c21.67529,-21.67529 47.64412,-30.84907 58.003,-20.49019c10.35888,10.35888 1.1851,36.32771 -20.49019,58.003c-21.67529,21.67529 -47.64412,30.84907 -58.003,20.49019c-10.35888,-10.35888 -1.1851,-36.32771 20.49019,-58.003z" data-paper-data="{&quot;index&quot;:null}" fill="#efa67e" stroke="#ffffff" stroke-width="25"/><path d="M373.49693,153.47444c30.65349,0 55.50307,11.8759 55.50307,26.52556c0,14.64966 -24.84957,26.52556 -55.50307,26.52556c-30.65349,0 -55.50307,-11.8759 -55.50307,-26.52556c0,-14.64966 24.84957,-26.52556 55.50307,-26.52556z" data-paper-data="{&quot;index&quot;:null}" fill="#ffb086" stroke="#ffffff" stroke-width="25"/><path d="M266.50307,153.47444c30.65349,0 55.50307,11.8759 55.50307,26.52556c0,14.64966 -24.84957,26.52556 -55.50307,26.52556c-30.65349,0 -55.50307,-11.8759 -55.50307,-26.52556c0,-14.64966 24.84957,-26.52556 55.50307,-26.52556z" data-paper-data="{&quot;index&quot;:null}" fill="#ffb086" stroke="#ffffff" stroke-width="25"/><path d="M293.47444,233.49693c0,-30.65349 11.8759,-55.50307 26.52556,-55.50307c14.64966,0 26.52556,24.84957 26.52556,55.50307c0,30.65349 -11.8759,55.50307 -26.52556,55.50307c-14.64966,0 -26.52556,-24.84957 -26.52556,-55.50307z" data-paper-data="{&quot;index&quot;:null}" fill="#ffb086" stroke="#ffffff" stroke-width="25"/><path d="M293.47444,126.50307c0,-30.6535 11.8759,-55.50307 26.52556,-55.50307c14.64966,0 26.52556,24.84957 26.52556,55.50307c0,30.6535 -11.8759,55.50307 -26.52556,55.50307c-14.64966,0 -26.52556,-24.84957 -26.52556,-55.50307z" data-paper-data="{&quot;index&quot;:null}" fill="#ffb086" stroke="#ffffff" stroke-width="25"/><path d="M276.53374,180c0,-24.00575 19.46051,-43.46626 43.46626,-43.46626c24.00575,0 43.46626,19.46051 43.46626,43.46626c0,24.00575 -19.46051,43.46626 -43.46626,43.46626c-24.00575,0 -43.46626,-19.46051 -43.46626,-43.46626z" data-paper-data="{&quot;index&quot;:null}" fill="#ffceb3" stroke="#ffffff" stroke-width="25"/><path d="M376.58445,199.07164c21.67529,21.67529 30.84907,47.64412 20.49019,58.003c-10.35888,10.35888 -36.32771,1.1851 -58.003,-20.49019c-21.67529,-21.67529 -30.84907,-47.64412 -20.49019,-58.003c10.35888,-10.35888 36.32771,-1.1851 58.003,20.49019z" data-paper-data="{&quot;index&quot;:null}" fill="#ffffff" stroke="#ffffff" stroke-width="25"/><path d="M300.92836,123.41555c21.67529,21.67529 30.84907,47.64412 20.49019,58.003c-10.35888,10.35888 -36.32771,1.1851 -58.003,-20.49019c-21.67529,-21.67529 -30.84907,-47.64412 -20.49019,-58.003c10.35888,-10.35888 36.32771,-1.1851 58.003,20.49019z" data-paper-data="{&quot;index&quot;:null}" fill="#ffffff" stroke="#ffffff" stroke-width="25"/><path d="M263.41555,199.07164c21.67529,-21.67529 47.64412,-30.84907 58.003,-20.49019c10.35888,10.35888 1.1851,36.32771 -20.49019,58.003c-21.67529,21.67529 -47.64412,30.84907 -58.003,20.49019c-10.35888,-10.35888 -1.1851,-36.32771 20.49019,-58.003z" fill="#ffffff" stroke="#ffffff" stroke-width="25"/><path d="M339.07164,123.41555c21.67529,-21.67529 47.64412,-30.84907 58.003,-20.49019c10.35888,10.35888 1.1851,36.32771 -20.49019,58.003c-21.67529,21.67529 -47.64412,30.84907 -58.003,20.49019c-10.35888,-10.35888 -1.1851,-36.32771 20.49019,-58.003z" fill="#ffffff" stroke="#ffffff" stroke-width="25"/><path d="M266.50307,153.47444c30.65349,0 55.50307,11.8759 55.50307,26.52556c0,14.64966 -24.84957,26.52556 -55.50307,26.52556c-30.65349,0 -55.50307,-11.8759 -55.50307,-26.52556c0,-14.64966 24.84957,-26.52556 55.50307,-26.52556z" data-paper-data="{&quot;index&quot;:null}" fill="#ffffff" stroke="#ffffff" stroke-width="25"/><path d="M293.47444,233.49693c0,-30.65349 11.8759,-55.50307 26.52556,-55.50307c14.64966,0 26.52556,24.84957 26.52556,55.50307c0,30.65349 -11.8759,55.50307 -26.52556,55.50307c-14.64966,0 -26.52556,-24.84957 -26.52556,-55.50307z" fill="#ffffff" stroke="#ffffff" stroke-width="25"/><path d="M293.47444,126.50307c0,-30.6535 11.8759,-55.50307 26.52556,-55.50307c14.64966,0 26.52556,24.84957 26.52556,55.50307c0,30.6535 -11.8759,55.50307 -26.52556,55.50307c-14.64966,0 -26.52556,-24.84957 -26.52556,-55.50307z" fill="#ffffff" stroke="#ffffff" stroke-width="25"/><path d="M276.53374,180c0,-24.00575 19.46051,-43.46626 43.46626,-43.46626c24.00575,0 43.46626,19.46051 43.46626,43.46626c0,24.00575 -19.46051,43.46626 -43.46626,43.46626c-24.00575,0 -43.46626,-19.46051 -43.46626,-43.46626z" fill="#ffffff" stroke="#ffffff" stroke-width="25"/><path d="M376.58445,199.07164c21.67529,21.67529 30.84907,47.64412 20.49019,58.003c-10.35888,10.35888 -36.32771,1.1851 -58.003,-20.49019c-21.67529,-21.67529 -30.84907,-47.64412 -20.49019,-58.003c10.35888,-10.35888 36.32771,-1.1851 58.003,20.49019z" data-paper-data="{&quot;index&quot;:null}" fill="#f0aa84" stroke="#000000" stroke-width="0"/><path d="M300.92836,123.41555c21.67529,21.67529 30.84907,47.64412 20.49019,58.003c-10.35888,10.35888 -36.32771,1.1851 -58.003,-20.49019c-21.67529,-21.67529 -30.84907,-47.64412 -20.49019,-58.003c10.35888,-10.35888 36.32771,-1.1851 58.003,20.49019z" data-paper-data="{&quot;index&quot;:null}" fill="#f0aa84" stroke="#000000" stroke-width="0"/><path d="M263.41555,199.07164c21.67529,-21.67529 47.64412,-30.84907 58.003,-20.49019c10.35888,10.35888 1.1851,36.32771 -20.49019,58.003c-21.67529,21.67529 -47.64412,30.84907 -58.003,20.49019c-10.35888,-10.35888 -1.1851,-36.32771 20.49019,-58.003z" fill="#f0aa84" stroke="#000000" stroke-width="0"/><path d="M339.07164,123.41555c21.67529,-21.67529 47.64412,-30.84907 58.003,-20.49019c10.35888,10.35888 1.1851,36.32771 -20.49019,58.003c-21.67529,21.67529 -47.64412,30.84907 -58.003,20.49019c-10.35888,-10.35888 -1.1851,-36.32771 20.49019,-58.003z" fill="#f0aa84" stroke="#000000" stroke-width="0"/><path d="M373.49693,153.47444c30.65349,0 55.50307,11.8759 55.50307,26.52556c0,14.64966 -24.84957,26.52556 -55.50307,26.52556c-30.65349,0 -55.50307,-11.8759 -55.50307,-26.52556c0,-14.64966 24.84957,-26.52556 55.50307,-26.52556z" data-paper-data="{&quot;index&quot;:null}" fill="#ffae80" stroke="#000000" stroke-width="0"/><path d="M266.50307,153.47444c30.65349,0 55.50307,11.8759 55.50307,26.52556c0,14.64966 -24.84957,26.52556 -55.50307,26.52556c-30.65349,0 -55.50307,-11.8759 -55.50307,-26.52556c0,-14.64966 24.84957,-26.52556 55.50307,-26.52556z" data-paper-data="{&quot;index&quot;:null}" fill="#ffae80" stroke="#000000" stroke-width="0"/><path d="M293.47444,233.49693c0,-30.65349 11.8759,-55.50307 26.52556,-55.50307c14.64966,0 26.52556,24.84957 26.52556,55.50307c0,30.65349 -11.8759,55.50307 -26.52556,55.50307c-14.64966,0 -26.52556,-24.84957 -26.52556,-55.50307z" fill="#ffae80" stroke="#000000" stroke-width="0"/><path d="M293.47444,126.50307c0,-30.6535 11.8759,-55.50307 26.52556,-55.50307c14.64966,0 26.52556,24.84957 26.52556,55.50307c0,30.6535 -11.8759,55.50307 -26.52556,55.50307c-14.64966,0 -26.52556,-24.84957 -26.52556,-55.50307z" fill="#ffae80" stroke="#000000" stroke-width="0"/><path d="M276.53374,180c0,-24.00575 19.46051,-43.46626 43.46626,-43.46626c24.00575,0 43.46626,19.46051 43.46626,43.46626c0,24.00575 -19.46051,43.46626 -43.46626,43.46626c-24.00575,0 -43.46626,-19.46051 -43.46626,-43.46626z" fill="#ffd6bf" stroke="#000000" stroke-width="0"/></g></g></svg>