<svg version="1.1" xmlns="http://www.w3.org/2000/svg" xmlns:xlink="http://www.w3.org/1999/xlink" width="186.2306" height="220.59162" viewBox="0,0,186.2306,220.59162"><g transform="translate(-226.87547,-69.70419)"><g data-paper-data="{&quot;isPaintingLayer&quot;:true}" fill-rule="nonzero" stroke="#ffffff" stroke-linecap="butt" stroke-linejoin="miter" stroke-miterlimit="10" stroke-dasharray="" stroke-dashoffset="0" style="mix-blend-mode: normal"><path d="M234.39845,189.97114l0.27459,-46.21327l170.87385,-0.58902l0.05466,46.80229l-85.60155,61.10964z" fill="#ec9a9a" stroke-width="15"/><path d="M234.39845,219.97114l0.2746,-46.21327l170.87385,-0.58902l0.05466,46.80229l-85.60155,61.10964z" fill="#ec9a9a" stroke-width="15"/><path d="M320,78.91922l85.60155,61.10964l-0.05466,46.80229l-170.87384,-0.58902l-0.2746,-46.21327z" data-paper-data="{&quot;index&quot;:null}" fill="#ec9a9a" stroke-width="15"/><path d="M234.39845,189.97114l0.27459,-46.21327l170.87385,-0.58902l0.05466,46.80229l-85.60155,61.10964z" fill="#ec9a9a" stroke-width="0"/><path d="M234.39845,219.97114l0.2746,-46.21327l170.87385,-0.58902l0.05466,46.80229l-85.60155,61.10964z" fill="#ec9a9a" stroke-width="0"/><path d="M320,78.91922l85.60155,61.10964l-0.05466,46.80229l-170.87384,-0.58902l-0.2746,-46.21327z" data-paper-data="{&quot;index&quot;:null}" fill="#ec9a9a" stroke-width="0"/><path d="M234.39845,219.97114l0.2746,-46.21327l170.87385,-0.58902l0.05466,46.80229l-85.60155,61.10964z" fill="#e35151" stroke-width="0"/><path d="M320,78.91922l85.60155,61.10964l-0.05466,46.80229l-170.87384,-0.58902l-0.2746,-46.21327z" data-paper-data="{&quot;index&quot;:null}" fill="#e35151" stroke-width="0"/><path d="M235,219.95l-0.25978,-79.72064l85.25979,52.72064v88.05873z" fill="#a53b3b" stroke-width="0"/><path d="M319.5,280.74894v-87.79894l85.51957,-52.72064l0.25979,79.72064z" data-paper-data="{&quot;index&quot;:null}" fill="#c94848" stroke-width="0"/></g></g></svg>